<?xml version="1.0" encoding="UTF-8"?>
<svg width="253px" height="246px" viewBox="0 0 253 246" version="1.1" xmlns="http://www.w3.org/2000/svg" xmlns:xlink="http://www.w3.org/1999/xlink">
    <!-- Generator: Sketch 57.1 (83088) - https://sketch.com -->
    <title>形状结合</title>
    <desc>Created with Sketch.</desc>
    <g id="页面-1" stroke="none" stroke-width="1" fill="none" fill-rule="evenodd">
        <path d="M228.602041,159.292417 C229.719393,160.667135 230.835746,162.012281 231.954102,163.324219 C233.300533,164.90371 235.039644,166.765453 237.171437,168.909449 C235.743542,173.105473 233.741529,176.896233 231.166504,180.281738 C227.9213,184.548359 216.532466,195.51125 197,213.17041 C211.543945,191.037598 220.486165,176.767904 223.82666,170.361328 C226.270925,165.67359 227.849941,162.031372 228.563709,159.434675 Z M47.0078125,213.345703 L38.3725586,218.068848 C39.1201741,218.859348 39.8533023,219.61848 40.5719432,220.346244 L41.1646726,220.117509 C43.0203559,219.397669 44.8761645,218.665483 46.7320986,217.920951 L49.5160938,216.794896 L49.5160938,216.794896 C48.6995085,215.732626 47.8631643,214.582756 47.0078125,213.345703 Z M158.977535,210.744754 C157.814943,210.960904 156.674809,211.079999 155.557028,211.102353 L155,211.105469 L166,218.552734 C166.094781,218.543142 166.1899,218.53203 166.285359,218.519397 L166.449,218.494 L166.541,218.48 L166.548,218.479 L166.058479,217.85699 C163.916146,215.177536 161.589823,212.800182 158.977535,210.744754 Z M166.549632,218.479326 L166.548,218.479 L166.549644,218.480679 L166.55,218.48 L166.549632,218.479326 Z M189.508116,143.199957 C194.724468,156.965498 191.862791,167.426563 180.923082,174.583153 C172.993668,179.770453 162.398032,178.281334 142.596116,182.974409 C136.640838,184.385816 129.472403,188.362328 121.090815,194.903945 C128.408049,186.834357 134.663648,181.604016 139.857611,179.212926 C156.223733,171.678626 161.023842,178.375895 178.019119,169.002742 C187.271396,163.899971 191.101062,155.299043 189.508116,143.199957 Z M60,180.693359 C57.2385763,180.693359 55,182.931935 55,185.693359 C55,188.454783 57.2385763,190.693359 60,190.693359 C62.7614237,190.693359 65,188.454783 65,185.693359 C65,182.931935 62.7614237,180.693359 60,180.693359 Z M90.5507812,112.308594 C73.1591243,120.640349 60.6421972,125.966115 53,128.285891 C45.5239375,130.555237 40.4104018,131.118425 37.6593928,129.975455 L37.4794922,129.896729 L37.444616,130.14251 C37.3777831,133.519962 37.0727084,136.877355 35.9906045,140.634821 C38.4990445,143.642815 44.8358469,143.625973 55,140.584961 C65.044539,137.579736 78.2458416,131.655066 94.6039077,122.810949 L95.4677734,122.342773 L90.5507812,112.308594 Z M139,113.693359 C136.238576,113.693359 134,115.931935 134,118.693359 C134,121.454783 136.238576,123.693359 139,123.693359 C141.761424,123.693359 144,121.454783 144,118.693359 C144,115.931935 141.761424,113.693359 139,113.693359 Z M159,92.6933594 C156.238576,92.6933594 154,94.9319357 154,97.6933594 C154,100.454783 156.238576,102.693359 159,102.693359 C161.761424,102.693359 164,100.454783 164,97.6933594 C164,94.9319357 161.761424,92.6933594 159,92.6933594 Z M120.167969,87.7698734 L120.269626,88.0080976 C121.781519,91.3951059 125.649976,93.5979244 131.875,94.6165531 C138.244792,95.6588708 143.144531,94.6573311 146.574219,91.6119342 L146.394004,91.7477976 C143.820379,93.6151899 139.120685,94.0253775 132.294922,92.9783604 C125.45856,91.9297174 121.441468,90.2454233 120.243647,87.9254781 L120.167969,87.7698734 Z M9.27152909,30.9819042 C17.4972365,43.9372967 31.1963343,64.5446188 50.3688223,92.8038705 C55.0119909,92.251793 58.2666543,91.3902768 60.1328125,90.2193219 C61.5390737,89.3369377 62.8509077,87.617737 64.0683146,85.0617196 L64.241,84.691 L64.0545542,85.0106895 C63.3522615,86.1588271 62.4497509,87.0783441 61.3476563,87.7698734 C59.5372765,88.9058292 56.0462426,90.1432224 50.8745548,91.4820533 L50.3688223,91.6119342 L9.27152909,30.9819042 Z M155.654002,60.4781902 C154.211937,69.4549719 151.644468,78.6900147 147.952076,88.1832256 L147.592,89.102 L153.418,74.769 L152.731446,74.3382329 C153.88274,70.6677909 154.9215,67.2673474 155.847724,64.1369025 L156.097321,63.2897817 C155.951299,62.3300102 155.803453,61.3927939 155.654002,60.4781902 Z M124.405539,73.3375476 L123,73.3382328 L120.167969,87.7698734 C121.559214,82.6826092 122.971738,77.8718339 124.405539,73.3375476 Z M65.2324219,82.2854984 L65.0731824,82.7062686 C64.8690385,83.2369767 64.6619916,83.7419582 64.4520417,84.221213 L64.2415875,84.6908816 C64.6454043,83.9729457 64.9753757,83.1708738 65.2324219,82.2854984 Z M1.47937809,15.2921363 L65.2324219,82.2854984 C28.2932174,41.8701444 7.04220284,19.5390237 1.47937809,15.2921363 Z M154,74.3382328 C154.443903,74.527417 154.886222,74.7191374 155.326959,74.9133942 C155.968288,75.6766056 156.587296,76.415125 157.184758,77.1301991 L157.184758,77.1301991 L153.784,74.998 L154,74.3382328 Z M72.7539062,5.69335938 L86.6845703,18.8632813 C91.2724609,28.7122396 95.0279948,39.5755844 97.9511719,51.4533156 C100.660111,62.4605337 103.281269,69.6674182 105.814647,73.0739691 L105.957952,73.262734 L105.957952,73.262734 C100.404908,74.3108002 95.4845145,75.1388022 91.1947982,75.7468797 L90.4443359,75.8519046 L88.6845703,73.1761234 L88.5125096,73.2485076 C87.0656336,70.0225546 84.5813205,65.7964896 81.0595703,60.5703125 C77.4997494,55.2876396 72.4441098,50.963051 64.2324219,41.7120851 C61.9646598,39.1573132 57.8871858,34.0039359 52,26.2519531 L67.4003906,33.6367188 C66.4815795,31.3504953 65.0922566,28.8889067 63.2324219,26.2519531 C61.3725872,23.6149995 57.6284465,19.0040708 52,12.4191669 C57.0840726,15.1128024 60.8282132,17.2608405 63.2324219,18.8632813 C65.6366305,20.465722 68.8104586,22.9286126 72.7539062,26.2519531 L70.2265625,16.2402344 L81.0595703,29.1992188 C80.7942443,25.0529417 80.1767313,21.6076292 79.2070312,18.8632813 C78.2373312,16.1189333 76.0862896,11.7289594 72.7539062,5.69335938 Z M156.241285,62.799871 C156.240008,62.8042297 156.238732,62.8085889 156.237455,62.8129487 L156.097321,63.2897817 C156.542133,66.2094464 156.972093,69.3383426 157.387201,72.6764703 L157.52502,73.7969289 L156.241285,62.799871 Z M126.224836,67.7677981 C125.614436,69.5752219 125.008108,71.4319682 124.405539,73.3375476 L126.310547,73.3382328 L126.319807,72.7710623 C126.33981,71.164558 126.308153,69.4968033 126.224836,67.7677981 Z M107.08599,73.0531482 L106.477,73.164 L106.477852,73.1656528 C106.505754,73.225352 106.533319,73.2828787 106.560547,73.3382328 L123,73.3382328 C118.194815,72.1253842 112.890144,72.030356 107.08599,73.0531482 Z M141.010688,34.3669782 C139.701224,37.5699784 138.273655,41.2098411 136.728516,45.2861328 C145.255182,48.5275317 150.00582,51.3279387 150.980429,53.6873538 C152.662534,57.7595324 152.662534,64.1612738 150.980429,72.8925781 C152.415896,67.6549567 153.590658,62.2923843 154.504715,56.8048607 L154.74754,55.3051654 L154.74754,55.3051654 C152.303524,42.3727277 149.46666,34.9978358 146.235352,33.1796875 C144.658749,32.2925863 142.917194,32.6883499 141.010688,34.3669782 Z M115.457031,2.76367187 L149.689453,6.69335938 L150.515,13.767 L150.486,13.75 L150.466797,13.7386234 C148.842948,12.8386017 143.412355,25.0327897 138.209625,37.4290561 L138.043663,37.8247347 L138.043663,37.8247347 C134.856818,42.3711013 131.279071,49.9579636 127.310547,60.5839844 C126.625956,47.3361293 125.454081,37.2768845 123.794922,30.40625 C122.175267,23.699202 119.488178,14.7588653 115.733657,3.58523986 L115.457031,2.76367187 Z M150.515,13.767 L150.466797,13.7386234 C154.77769,16.1279453 158.18457,31.4466312 156.771484,50.9378421 C156.570906,53.7044949 156.258943,56.4967104 155.835595,59.3144888 L155.096061,52.9845321 C155.232192,52.0334391 155.360653,51.0786703 155.481445,50.1202258 C156.962891,38.3654515 155.801798,26.3925781 151.433594,17.3388672 C151.278285,17.0169678 151.088513,16.8229995 150.864277,16.7569622 L150.515,13.767 Z M189.696356,103.621284 L189.825288,103.063581 C189.98872,102.331125 190.118246,101.643265 190.213867,101 L190.213867,101 L198.385742,110.550933 L198.133062,111.293532 C197.871924,112.036246 197.585417,112.779305 197.273538,113.52271 L197.273538,113.52271 L189.696356,103.621284 L189.696356,103.621284 Z M226.297807,145.709619 C222.714368,140.665347 219.274755,135.857389 215.978968,131.285746 C219.695491,129.318867 224.051388,125.92857 229.046875,121.116398 C234.932863,115.446402 240.688917,108.276645 246.315036,99.6071283 C246.199401,102.005384 246.049693,104.876736 245.865915,108.221185 C245.682137,111.565635 247.916709,115.864038 252.569632,121.116398 C247.618447,127.165061 242.868022,132.050341 238.318359,135.772238 C234.274214,139.080591 230.372904,142.304983 226.614429,145.445415 Z M188.154427,108.837009 C190.568608,111.418036 193.038542,114.180753 195.564229,117.12516 C193.742622,120.57072 191.377286,124.023117 188.46875,127.482906 C183.707371,133.146706 178.402928,137.600971 172.555422,140.845703 C174.497847,138.887654 177.746728,132.966745 182.302067,123.082975 C184.834246,117.588876 186.773756,112.874296 188.120597,108.939236 Z M178.174938,88.3080717 L178.107644,88.4838679 L178,88.3453543 L178.012,88.327 L178.05,88.268 L178.063,88.248 L178.073809,88.2319016 C178.107531,88.2572719 178.14124,88.2826619 178.174938,88.3080717 Z M167.893205,90.48549 L167.868976,90.4503222 C167.729898,90.2561156 167.596489,90.0727937 167.468747,89.9003563 C165.457307,87.1851308 162.029311,82.9284117 157.184758,77.1301991 L157.184758,77.1301991 L177.559571,89.9003564 L177.918206,88.9746277 C177.981559,88.8107133 178.044704,88.6471267 178.107644,88.4838679 L178.107644,88.4838679 L189.696356,103.621284 L189.696356,103.621284 L189.598998,104.019787 C189.237697,105.467803 188.756582,107.073408 188.155651,108.836602 C180.896818,101.07782 174.143078,94.960647 167.893205,90.48549 Z M215.978968,131.285746 L215.868571,131.345555 C215.245171,131.672129 214.639892,131.958417 214.052734,132.204419 L214.052734,132.204419 L225.211696,146.619141 L226.297807,145.709619 C234.378336,157.084276 243.190199,169.660562 252.733398,183.438477 C246.242655,177.658589 241.055334,172.81558 237.171437,168.909449 C237.544456,167.817401 237.877556,166.697892 238.171842,165.550933 L238.171842,165.550933 L228.999871,157 C228.972277,157.637158 228.839791,158.401062 228.602414,159.291711 C219.48109,148.070583 210.293624,134.878241 199.407227,121.693359 C198.112198,120.124906 196.831199,118.602173 195.564229,117.12516 C196.200469,115.923813 196.770062,114.722811 197.273538,113.52271 L197.273538,113.52271 L211.574219,132.20442 C212.741497,131.448112 213.877964,130.681919 214.983622,129.905841 C215.313262,130.36271 215.645378,130.823018 215.978968,131.285746 Z M178.073809,88.2319016 C171.028756,82.9316096 163.446473,78.4921071 155.326959,74.9133942 C155.073873,74.6126612 154.816627,74.3069988 154.555997,73.997654 L154,73.3382328 L153.418,74.769 L153.784,74.998 L151.433594,82.1740579 C156.464685,83.4603167 161.951222,86.230794 167.893205,90.48549 C170.400814,93.9920529 174.732497,101.0029 180.888672,111.517305 C171.283665,121.639449 164.502415,128.635097 160.544922,132.504248 C149.559613,143.244337 144.958984,135.738623 128,153.209327 C118.752444,162.735917 118.275175,183.332234 105.571374,190.203467 C86.87359,200.316726 68.1884965,209.180536 49.5160938,216.794896 C54.4981673,223.27194 58.7734767,226.510254 62.3427734,226.510254 C81.9580078,226.510254 105.97168,196.006348 140.712891,202.73877 C148.009223,204.15271 153.747729,206.747462 158.531805,210.399301 L158.977535,210.744754 C163.213326,209.95761 167.736672,207.892632 172.555422,204.548828 C178.923056,200.13023 187.19983,192.511741 197.385742,181.693359 C190.004014,195.386945 183.875434,204.857648 179,210.105469 C174.484014,214.966387 170.433141,217.740635 166.847381,218.428211 L166.55,218.48 L167.08431,219.179508 C170.270288,223.41927 173.065331,228.353685 175.833008,233.908203 C178.230469,238.719727 179.128418,243.294922 185.3125,243.294922 C189.435221,243.294922 193.642253,242.261719 197.933594,240.195313 C192.85612,243.701823 188.649089,245.455078 185.3125,245.455078 C175.833008,245.455078 173.776494,239.150914 172.955078,237.330078 C164.911133,219.499023 148.639823,212.376074 139.259766,210.692383 C99.4648438,203.549316 87.4443359,236.330078 58.4926758,232.908203 C54.1348193,232.219212 48.1612417,228.031893 40.5719432,220.346244 C36.7477611,221.825071 32.9234189,223.250943 29.0996094,224.624366 C22.811849,216.226579 18.0716146,209.256202 14.8789063,203.713233 C7.01990716,190.068959 4.3515625,176.221163 14.8789063,165.654756 C25.40625,155.08835 31.5335134,153.200275 35.21875,143.010108 C35.4387659,142.401735 35.637611,141.804963 35.8172689,141.218245 L35.9906045,140.634821 L35.9906045,140.634821 C35.9756173,140.618739 35.9617604,140.601897 35.9480223,140.584961 L37.444616,130.14251 C37.5541883,124.605185 37.0233779,119.013942 38.2265625,111.517305 C38.499845,109.814574 40.9405248,105.612727 45.548602,98.9117653 L8.05175781,29.1819828 L9.27152909,30.9819042 C3.09050969,21.2468713 9.9475983e-14,15.8324444 9.9475983e-14,14.7386234 C9.9475983e-14,14.3760168 0.439856243,14.5204453 1.31956873,15.1719088 L1.47937809,15.2921363 L1.42108547e-14,13.7386234 L74.0917969,79.1683109 L88.5125096,73.2485076 C89.0718416,74.4955935 89.4761355,75.5932193 89.7253913,76.5413849 L89.8027344,76.8519046 L106.414062,73.810889 C106.262344,73.6419513 106.110307,73.459233 105.957952,73.262734 L106.414063,73.1761234 L106.477,73.164 L106.411741,73.0215281 C105.077149,70.0592288 103.0011,62.3086267 100.183594,49.7697218 C97.2591146,36.7547479 90.2669271,20.6537729 79.2070312,1.46679688 C84.7180723,3.23323049 88.7330463,4.30875132 91.2519531,4.69335938 C97.7309655,5.68262993 97.7668713,5.43740857 100.183594,5.69335938 C100.183594,3.77207172 99.5789075,2.40270957 98.3695348,1.58527293 L98.1835938,1.46679688 L106.414062,9.23705556e-14 C110.085121,5.02414766 112.401528,8.93600538 113.363281,11.7355732 C121.121642,34.3193788 125.397287,52.7739614 126.190218,67.0993212 L126.224836,67.7677981 C128.073496,62.2880988 129.956989,57.2574222 131.875,52.6752788 C133.676043,48.3725718 135.835412,43.0927929 138.043663,37.8247347 L138.102425,37.7400044 C139.019411,36.4402722 139.903948,35.3929064 140.756035,34.597907 L141.010688,34.3669782 L141.010688,34.3669782 C145.934592,22.3270677 149.197316,16.4520783 150.799374,16.7415939 L150.864277,16.7569622 L150.864277,16.7569622 L155.096061,52.9845321 C154.984993,53.7605234 154.868819,54.5340679 154.74754,55.3051654 C155.020195,56.7556944 155.289352,58.2769802 155.553542,59.8682545 L155.654002,60.4781902 C155.717091,60.0897195 155.777395,59.7018626 155.835595,59.3144888 L156.241285,62.799871 C158.462946,55.2120351 159.989289,49.292437 160.820312,45.0410766 C162.033854,38.8328244 163.033854,27.1003821 163.820312,9.84374995 C168.414062,12.256022 171.925782,14.2303468 174.355469,15.7667236 C176.717665,17.2604236 180.786604,19.9913733 186.562285,23.9595729 L187.061523,24.3027343 L185.039063,32.544922 L195.631347,27.9882812 C194.484299,33.4166668 192.74911,41.0659616 190.425781,50.9361658 C188.252711,60.168024 184.360235,72.1274935 178.748351,86.8145743 L178.396,87.734 L178.934737,86.9035575 C182.98093,80.6260549 186.970784,73.9622388 190.904297,66.9121094 C195.784742,58.1647709 199.914951,46.9206303 203.294922,33.1796875 L237.291016,78.3154297 L226.337891,96.3941824 L238.291016,85.7695312 L243.921875,97.6933594 C240.167969,103.902781 235.77474,109.952259 230.742188,115.841794 C226.468003,120.84382 221.215148,125.531836 214.983622,129.905841 C210.885908,124.231552 207.0154,118.929944 203.371094,114 C195.919107,103.919102 187.520388,95.3551259 178.174938,88.3080717 L178.107644,88.4838679 C178.204037,88.2338325 178.299945,87.984566 178.395369,87.7360684 L178.356,87.796 L178.272,87.925 L178.23,87.991 L178.222,88.003 L178.219,88.008 L178.173,88.079 L178.168,88.086 L178.158,88.102 L178.153,88.109 L178.105,88.183 L178.085,88.214 Z" id="形状结合" fill="#DBDBDB" fill-rule="nonzero"></path>
    </g>
</svg>