<?xml version="1.0" encoding="UTF-8"?>
<svg width="260px" height="246px" viewBox="0 0 260 246" version="1.1" xmlns="http://www.w3.org/2000/svg" xmlns:xlink="http://www.w3.org/1999/xlink">
    <!-- Generator: Sketch 57.1 (83088) - https://sketch.com -->
    <title>Logo</title>
    <desc>Created with Sketch.</desc>
    <g id="Logo" stroke="none" stroke-width="1" fill="none" fill-rule="evenodd">
        <path d="M7.10542736e-15,14.7386234 C7.10542736e-15,17.2881025 16.7896074,43.3098516 50.3688223,92.8038705 C55.0119909,92.251793 58.2666543,91.3902768 60.1328125,90.2193219 C61.9989707,89.048367 63.6988405,86.4037592 65.2324219,82.2854984 C21.7441406,34.7047692 7.10542736e-15,12.1891442 7.10542736e-15,14.7386234 Z" id="路径-3" fill="#DBDBDB" fill-rule="nonzero"></path>
        <path d="M88.6845703,73.1761234 L90.4443359,75.8519046 C95.0235287,75.2194741 100.346771,74.3275471 106.414063,73.1761234 C112.481354,72.0246997 118.01,72.0787362 123,73.3382328 L120.167969,87.7698734 C121.264323,90.1702519 125.306641,91.9064142 132.294922,92.9783604 C139.283203,94.0503065 144.042969,93.5948311 146.574219,91.6119342 L154,73.3382328 C160.552074,81.1033386 165.041656,86.6240464 167.468747,89.9003563 C169.895838,93.1766662 174.369146,100.382316 180.888672,111.517305 C171.283665,121.639449 164.502415,128.635097 160.544922,132.504248 C149.559613,143.244337 144.958984,135.738623 128,153.209327 C118.752444,162.735917 118.275175,183.332234 105.571374,190.203467 C80.0571556,204.0036 54.5665672,215.477233 29.0996094,224.624366 C22.811849,216.226579 18.0716146,209.256202 14.8789063,203.713233 C7.01990716,190.068959 4.3515625,176.221163 14.8789063,165.654756 C25.40625,155.08835 31.5335134,153.200275 35.21875,143.010108 C39.2730953,131.799306 36.1384148,124.527848 38.2265625,111.517305 C38.499845,109.814574 40.9405248,105.612727 45.548602,98.9117653 L8.05175781,29.1819828 L50.3688223,91.6119342 C55.8192658,90.2231598 59.4788771,88.9424729 61.3476563,87.7698734 C63.2164354,86.5972739 64.5113573,84.7691489 65.2324219,82.2854984 L0,13.7386234 L74.0917969,79.1683109 L88.6845703,73.1761234 Z" id="路径-2" fill="#969696" fill-rule="nonzero"></path>
        <circle id="椭圆形" fill="#DBDBDB" fill-rule="nonzero" cx="60" cy="185.693359" r="5"></circle>
        <circle id="椭圆形" fill="#DBDBDB" fill-rule="nonzero" cx="139" cy="118.693359" r="5"></circle>
        <circle id="椭圆形" fill="#DBDBDB" fill-rule="nonzero" cx="159" cy="97.6933594" r="5"></circle>
        <path d="M89.8027344,76.8519046 C89.0084139,73.4684987 86.0940259,68.0413014 81.0595703,60.5703125 C77.4997494,55.2876396 72.4441098,50.963051 64.2324219,41.7120851 C61.9646598,39.1573132 57.8871858,34.0039359 52,26.2519531 L67.4003906,33.6367188 C66.4815795,31.3504953 65.0922566,28.8889067 63.2324219,26.2519531 C61.3725872,23.6149995 57.6284465,19.0040708 52,12.4191669 C57.0840726,15.1128024 60.8282132,17.2608405 63.2324219,18.8632813 C65.6366305,20.465722 68.8104586,22.9286126 72.7539062,26.2519531 L70.2265625,16.2402344 L81.0595703,29.1992188 C80.7942443,25.0529417 80.1767313,21.6076292 79.2070312,18.8632813 C78.2373312,16.1189333 76.0862896,11.7289594 72.7539062,5.69335938 L86.6845703,18.8632813 C91.2724609,28.7122396 95.0279948,39.5755844 97.9511719,51.4533156 C100.874349,63.3310468 103.695312,70.7835713 106.414062,73.810889 L89.8027344,76.8519046 Z" id="路径-6" fill="#E46057" fill-rule="nonzero"></path>
        <path d="M79.2070312,1.46679688 C90.2669271,20.6537729 97.2591146,36.7547479 100.183594,49.7697218 C103.108073,62.7846958 105.233724,70.6408661 106.560547,73.3382328 L126.310547,73.3382328 C126.615234,58.2821628 122.299479,37.747943 113.363281,11.7355732 C112.401528,8.93600538 110.085121,5.02414766 106.414062,7.10542736e-15 L98.1835938,1.46679688 C99.5169271,2.26715317 100.183594,3.67600734 100.183594,5.69335938 C97.7668713,5.43740857 97.7309655,5.68262993 91.2519531,4.69335938 C88.7330463,4.30875132 84.7180723,3.23323049 79.2070312,1.46679688 Z" id="路径-7" fill="#E46057" fill-rule="nonzero"></path>
        <path d="M115.457031,2.76367187 C119.356466,14.3214228 122.135763,23.5356155 123.794922,30.40625 C125.454081,37.2768845 126.625956,47.3361293 127.310547,60.5839844 C135.139727,39.6207693 141.447995,30.4860036 146.235352,33.1796875 C151.022708,35.8733714 154.944257,50.7641104 158,77.8519046 L149.689453,6.69335938 L115.457031,2.76367187 Z" id="路径-8" fill="#E46057" fill-rule="nonzero"></path>
        <path d="M153.018256,13.5360775 C157.018836,30.3409943 159.291474,41.894579 159.836169,48.1968315 C160.380864,54.499084 160.480822,64.6296934 160.136042,78.5886594 L188.29187,86.704374 C189.864346,69.4984913 190.406949,55.8314272 189.919679,45.7031818 C189.432409,35.5749363 188.991948,27.7436794 188.598296,22.2094108 L179.672319,29.5091644 L179.344578,21.0287994 C172.392502,18.7005626 167.53694,17.1328703 164.777891,16.3257226 C162.018843,15.5185749 158.098964,14.5886932 153.018256,13.5360775 Z" id="路径-8" fill="#E46057" fill-rule="nonzero" transform="translate(171.555422, 50.120226) rotate(16.000000) translate(-171.555422, -50.120226) "></path>
        <path d="M120.167969,87.7698734 C123.915893,74.0651169 127.818237,62.3669187 131.875,52.6752788 C137.960145,38.1378189 148.135742,12.4466312 150.466797,13.7386234 C154.77769,16.1279453 158.18457,31.4466312 156.771484,50.9378421 C155.829427,63.9319828 152.430339,77.4900134 146.574219,91.6119342 C143.144531,94.6573311 138.244792,95.6588708 131.875,94.6165531 C125.505208,93.5742354 121.602865,91.2920088 120.167969,87.7698734 Z" id="路径-4" stroke="#969696" stroke-width="4"></path>
        <path d="M151.433594,17.3388672 C155.801798,26.3925781 156.962891,38.3654515 155.481445,50.1202258 C154.493815,57.9567419 152.993476,65.547526 150.980429,72.8925781 C152.662534,64.1612738 152.662534,57.7595324 150.980429,53.6873538 C150.00582,51.3279387 145.255182,48.5275317 136.728516,45.2861328 C144.996871,23.4730588 149.898564,14.1573036 151.433594,17.3388672 Z" id="路径-5" fill="#E46057" fill-rule="nonzero"></path>
        <path d="M37.4794922,129.896729 C40.1843002,131.142613 45.3578028,130.605667 53,128.285891 C60.6421972,125.966115 73.1591243,120.640349 90.5507812,112.308594 L95.4677734,122.342773 C78.7100168,131.446284 65.220759,137.527013 55,140.584961 C44.779241,143.642909 38.4285818,143.642909 35.9480223,140.584961 L37.4794922,129.896729 Z" id="路径-9" fill="#E46057" fill-rule="nonzero"></path>
        <path d="M155,211.105469 C160.33598,211.152973 166.187788,208.967426 172.555422,204.548828 C178.923056,200.13023 187.19983,192.511741 197.385742,181.693359 C190.004014,195.386945 183.875434,204.857648 179,210.105469 C174.124566,215.35329 169.791233,218.169045 166,218.552734 L155,211.105469 Z" id="路径-16" fill="#5F5F5F" fill-rule="nonzero"></path>
        <path d="M38.3725586,218.068848 C47.0154622,227.20752 53.722168,232.153971 58.4926758,232.908203 C87.4443359,236.330078 99.4648438,203.549316 139.259766,210.692383 C148.639823,212.376074 164.911133,219.499023 172.955078,237.330078 C173.776494,239.150914 175.833008,245.455078 185.3125,245.455078 C188.649089,245.455078 192.85612,243.701823 197.933594,240.195313 C193.642253,242.261719 189.435221,243.294922 185.3125,243.294922 C179.128418,243.294922 178.230469,238.719727 175.833008,233.908203 C167.581333,217.347714 159.086393,206.29933 140.712891,202.73877 C105.97168,196.006348 81.9580078,226.510254 62.3427734,226.510254 C58.1878255,226.510254 53.0761719,222.12207 47.0078125,213.345703 L38.3725586,218.068848 Z" id="路径-10" stroke="#979797" fill="#969696" fill-rule="nonzero" stroke-linejoin="round"></path>
        <path d="M125,199.722656 C131.122953,190.713238 136.58975,184.663188 141.400391,181.572508 C156.558667,171.833807 162.244141,177.797852 177.769531,166.150633 C186.221597,159.809854 188.816975,150.759643 185.555664,139 C192.637044,151.905599 191.259115,162.663126 181.421875,171.272582 C174.291563,177.512961 163.591797,177.512961 144.635742,184.916258 C138.93485,187.142744 132.389602,192.07821 125,199.722656 Z" id="路径-11" stroke="#979797" fill="#969696" fill-rule="nonzero" transform="translate(157.500795, 169.361328) rotate(8.000000) translate(-157.500795, -169.361328) "></path>
        <path d="M178,88.3453543 C182.366773,81.6489715 186.668206,74.5045565 190.904297,66.9121094 C195.784742,58.1647709 199.914951,46.9206303 203.294922,33.1796875 L237.291016,78.3154297 L226.337891,96.3941824 L238.291016,85.7695312 L243.921875,97.6933594 C240.167969,103.902781 235.77474,109.952259 230.742188,115.841794 C225.709635,121.731328 219.320313,127.185537 211.574219,132.20442 L178,88.3453543 Z" id="路径-14" fill="#E46057" fill-rule="nonzero"></path>
        <path d="M220.609023,140.80914 L237.095878,148.586688 C239.234292,143.558452 241.485536,138.353465 243.849609,132.971726 C246.213683,127.589988 248.228471,121.080524 249.893974,113.443335 C243.363668,110.875831 239.421215,108.0604 238.066615,104.99704 C236.712014,101.93368 235.541838,99.3073206 234.556084,97.1179622 C233.479054,107.396763 231.605374,116.398257 228.935044,124.122443 C226.264714,131.846629 223.489374,137.408862 220.609023,140.80914 Z" id="路径-13" fill="#E46057" fill-rule="nonzero" transform="translate(235.251498, 122.852325) rotate(27.000000) translate(-235.251498, -122.852325) "></path>
        <path d="M228.999871,157 L238.171842,165.550933 C236.74682,171.104849 234.411707,176.015118 231.166504,180.281738 C227.9213,184.548359 216.532466,195.51125 197,213.17041 C211.543945,191.037598 220.486165,176.767904 223.82666,170.361328 C227.167155,163.954753 228.891558,159.500977 228.999871,157 Z" id="路径-15" fill="#5F5F5F" fill-rule="nonzero"></path>
        <path d="M190.213867,101 L198.385742,110.550933 C196.535793,116.175115 193.230129,121.819106 188.46875,127.482906 C183.707371,133.146706 178.402928,137.600971 172.555422,140.845703 C174.497847,138.887654 177.746728,132.966745 182.302067,123.082975 C186.857405,113.199205 189.494672,105.838213 190.213867,101 Z" id="路径-15备份" fill="#5F5F5F" fill-rule="nonzero"></path>
        <path d="M154,74.3382328 C173.516927,82.6560357 189.973958,95.8766248 203.371094,114 C216.768229,132.123375 233.222331,155.269534 252.733398,183.438477 C242.680017,174.486125 235.753584,167.781372 231.954102,163.324219 C221.706594,151.30292 211.62725,136.49344 199.407227,121.693359 C180.390951,98.6621094 164.39974,85.4890089 151.433594,82.1740579 L154,74.3382328 Z" id="路径-12" fill="#969696" fill-rule="nonzero"></path>
    </g>
</svg>