<?xml version="1.0" encoding="UTF-8"?>
<svg width="723px" height="162px" viewBox="0 0 723 162" version="1.1" xmlns="http://www.w3.org/2000/svg" xmlns:xlink="http://www.w3.org/1999/xlink">
    <!-- Generator: Sketch 57.1 (83088) - https://sketch.com -->
    <title>Unisave</title>
    <desc>Created with Sketch.</desc>
    <g id="页面-1" stroke="none" stroke-width="1" fill="none" fill-rule="evenodd">
        <g id="black" transform="translate(-301.000000, -71.000000)" fill="#000000" fill-rule="nonzero">
            <path d="M386.4,232.2 C397.106667,232.2 406.126667,231.063333 413.46,228.79 C420.793333,226.516667 426.806667,223.436667 431.5,219.55 C436.193333,215.663333 439.823333,211.336667 442.39,206.57 C444.956667,201.803333 446.826667,197.036667 448,192.27 C449.173333,187.503333 449.87,182.993333 450.09,178.74 C450.31,174.486667 450.493333,170.966667 450.64,168.18 C450.933333,158.353333 451.19,149.553333 451.41,141.78 C451.63,134.006667 451.813333,126.966667 451.96,120.66 C451.96,117.286667 452.033333,113.876667 452.18,110.43 C452.326667,106.983333 452.546667,103.72 452.84,100.64 C453.133333,97.56 453.463333,94.8466667 453.83,92.5 C454.196667,90.1533333 454.6,88.4666667 455.04,87.44 C456.8,83.1866667 459.256667,80.0333333 462.41,77.98 C465.563333,75.9266667 469.853333,74.5333333 475.28,73.8 L475.28,71.6 L420.72,71.6 L420.72,73.8 C427.76,74.8266667 433.076667,76.6233333 436.67,79.19 C440.263333,81.7566667 442.793333,85.0933333 444.26,89.2 C444.846667,90.6666667 445.286667,92.61 445.58,95.03 C445.873333,97.45 446.093333,100.053333 446.24,102.84 C446.386667,105.626667 446.496667,108.56 446.57,111.64 C446.643333,114.72 446.68,117.726667 446.68,120.66 L446.68,158.06 L446.68,158.06 C446.68,163.046667 446.496667,168.143333 446.13,173.35 C445.763333,178.556667 445.03,183.653333 443.93,188.64 C442.83,193.626667 441.143333,198.32 438.87,202.72 C436.596667,207.12 433.516667,211.006667 429.63,214.38 C425.743333,217.753333 420.903333,220.393333 415.11,222.3 C409.316667,224.206667 402.24,225.16 393.88,225.16 C386.546667,225.16 380.02,223.95 374.3,221.53 C368.58,219.11 363.74,215.663333 359.78,211.19 C355.82,206.716667 352.74,201.29 350.54,194.91 C348.34,188.53 347.166667,181.453333 347.02,173.68 C347.02,170.16 346.983333,166.823333 346.91,163.67 C346.836667,160.516667 346.8,157.253333 346.8,153.88 L346.8,110.1 L346.8,110.1 C346.8,107.313333 346.836667,104.453333 346.91,101.52 C346.983333,98.5866667 347.093333,95.2133333 347.24,91.4 C347.386667,88.0266667 348.12,85.24 349.44,83.04 C350.76,80.84 352.373333,79.1166667 354.28,77.87 C356.186667,76.6233333 358.313333,75.7066667 360.66,75.12 C363.006667,74.5333333 365.206667,74.0933333 367.26,73.8 L367.26,71.6 L301.7,71.6 L301.7,73.8 C305.513333,74.24 308.923333,75.01 311.93,76.11 C314.936667,77.21 317.466667,79.0066667 319.52,81.5 C320.4,82.5266667 321.06,83.9566667 321.5,85.79 C321.94,87.6233333 322.27,89.6766667 322.49,91.95 C322.71,94.2233333 322.82,96.68 322.82,99.32 L322.82,136.5 C322.82,144.566667 322.783333,151.9 322.71,158.5 C322.642308,164.592308 322.605858,169.622367 322.600651,173.590178 L322.6,174.56 C322.6,176.32 322.71,178.996667 322.93,182.59 C323.15,186.183333 323.883333,190.143333 325.13,194.47 C326.376667,198.796667 328.283333,203.196667 330.85,207.67 C333.416667,212.143333 337.046667,216.25 341.74,219.99 C346.433333,223.73 352.41,226.7 359.67,228.9 C366.93,231.1 375.84,232.2 386.4,232.2 Z M526.1,230 L526.1,227.8 C524.633333,227.506667 523.24,227.323333 521.92,227.25 C520.6,227.176667 519.426667,226.993333 518.4,226.7 C517.373333,226.406667 516.493333,225.93 515.76,225.27 C515.026667,224.61 514.513333,223.546667 514.22,222.08 L514.22,149.92 C518.18,145.96 521.773333,142.953333 525,140.9 C528.226667,138.846667 532.26,137.82 537.1,137.82 C544.726667,137.82 550.153333,140.423333 553.38,145.63 C556.606667,150.836667 558.22,157.693333 558.22,166.2 L558.22,221.64 C558.22,223.986667 557.046667,225.49 554.7,226.15 C552.353333,226.81 549.2,227.286667 545.24,227.58 L545.24,230 L590.12,230 L590.12,228.02 C588.8,227.873333 587.37,227.69 585.83,227.47 C584.29,227.25 582.86,226.956667 581.54,226.59 C580.22,226.223333 579.083333,225.673333 578.13,224.94 C577.176667,224.206667 576.7,223.326667 576.7,222.3 L576.7,157.62 C576.7,147.646667 574.426667,139.506667 569.88,133.2 C565.333333,126.893333 558.806667,123.74 550.3,123.74 C546.34,123.74 542.526667,124.51 538.86,126.05 C535.193333,127.59 531.82,129.533333 528.74,131.88 C525.66,134.226667 522.91,136.83 520.49,139.69 C518.07,142.55 516.053333,145.226667 514.44,147.72 L514,147.5 L514,123.74 L512.68,123.74 L483.86,134.08 L483.86,135.4 C485.62,136.133333 487.38,136.976667 489.14,137.93 C490.9,138.883333 492.44,139.726667 493.76,140.46 C494.786667,141.193333 495.41,141.853333 495.63,142.44 C495.85,143.026667 495.96,143.906667 495.96,145.08 L495.96,220.76 C495.96,223.106667 494.75,224.793333 492.33,225.82 C489.91,226.846667 487.013333,227.506667 483.64,227.8 L483.64,230 L526.1,230 Z M619.16,100.86 C622.533333,100.86 625.356667,99.7233333 627.63,97.45 C629.903333,95.1766667 631.04,92.3533333 631.04,88.98 C631.04,85.6066667 629.903333,82.82 627.63,80.62 C625.356667,78.42 622.533333,77.32 619.16,77.32 C615.786667,77.32 612.963333,78.42 610.69,80.62 C608.416667,82.82 607.28,85.6066667 607.28,88.98 C607.28,92.2066667 608.453333,94.9933333 610.8,97.34 C613.146667,99.6866667 615.933333,100.86 619.16,100.86 Z M643.36,230 L643.36,227.8 C641.893333,227.506667 640.39,227.323333 638.85,227.25 C637.31,227.176667 635.88,226.993333 634.56,226.7 C633.24,226.406667 632.103333,225.93 631.15,225.27 C630.196667,224.61 629.573333,223.546667 629.28,222.08 L629.28,123.74 L627.96,123.74 L598.26,133.42 L598.26,134.74 C600.313333,135.473333 602.256667,136.28 604.09,137.16 C605.923333,138.04 607.5,138.92 608.82,139.8 C609.846667,140.533333 610.47,141.34 610.69,142.22 C610.91,143.1 611.02,144.126667 611.02,145.3 L611.02,220.76 C611.02,222.08 610.543333,223.18 609.59,224.06 C608.636667,224.94 607.463333,225.636667 606.07,226.15 C604.676667,226.663333 603.1,227.03 601.34,227.25 C599.58,227.47 597.82,227.653333 596.06,227.8 L596.06,230 L643.36,230 Z M688.02,230.44 C693.446667,230.44 698.616667,229.853333 703.53,228.68 C708.443333,227.506667 712.806667,225.6 716.62,222.96 C720.433333,220.32 723.476667,216.91 725.75,212.73 C728.023333,208.55 729.16,203.6 729.16,197.88 C729.16,190.4 726.85,184.093333 722.23,178.96 C717.61,173.826667 712,170.453333 705.4,168.84 C702.613333,168.106667 699.313333,167.336667 695.5,166.53 C691.686667,165.723333 688.166667,164.953333 684.94,164.22 C680.246667,163.046667 676.36,161.286667 673.28,158.94 C670.2,156.593333 668.66,152.706667 668.66,147.28 C668.66,143.906667 669.246667,140.936667 670.42,138.37 C671.593333,135.803333 673.096667,133.676667 674.93,131.99 C676.763333,130.303333 678.89,129.02 681.31,128.14 C683.73,127.26 686.186667,126.82 688.68,126.82 C692.786667,126.82 696.416667,127.553333 699.57,129.02 C702.723333,130.486667 705.546667,132.576667 708.04,135.29 C710.533333,138.003333 712.806667,141.23 714.86,144.97 C716.913333,148.71 718.966667,152.78 721.02,157.18 L722.78,156.74 L720.14,129.46 C715.886667,127.846667 711.413333,126.49 706.72,125.39 C702.026667,124.29 696.6,123.74 690.44,123.74 C685.6,123.74 681.053333,124.436667 676.8,125.83 C672.546667,127.223333 668.806667,129.24 665.58,131.88 C662.353333,134.52 659.786667,137.673333 657.88,141.34 C655.973333,145.006667 655.02,149.113333 655.02,153.66 C655.02,160.26 656.743333,165.906667 660.19,170.6 C663.636667,175.293333 668.146667,178.593333 673.72,180.5 C676.653333,181.526667 679.953333,182.48 683.62,183.36 C687.286667,184.24 691.1,185.046667 695.06,185.78 C700.046667,186.806667 703.97,188.823333 706.83,191.83 C709.69,194.836667 711.12,198.613333 711.12,203.16 C711.12,211.52 709.03,217.716667 704.85,221.75 C700.67,225.783333 695.06,227.8 688.02,227.8 C683.18,227.8 679,226.736667 675.48,224.61 C671.96,222.483333 668.953333,219.77 666.46,216.47 C663.966667,213.17 661.84,209.576667 660.08,205.69 C658.32,201.803333 656.853333,198.1 655.68,194.58 L653.92,194.58 L653.92,223.62 C658.76,225.82 664.04,227.506667 669.76,228.68 C675.48,229.853333 681.566667,230.44 688.02,230.44 Z M812.54,230.22 C815.62,230.22 818.443333,229.67 821.01,228.57 C823.576667,227.47 825.813333,225.856667 827.72,223.73 C829.626667,221.603333 831.166667,219.22 832.34,216.58 C833.513333,213.94 834.173333,211.226667 834.32,208.44 L833,208.44 C832.413333,210.64 831.313333,212.436667 829.7,213.83 C828.086667,215.223333 825.593333,215.92 822.22,215.92 C819.286667,215.92 816.683333,214.856667 814.41,212.73 C812.136667,210.603333 811,206.24 811,199.64 C811,194.653333 811.036667,190.07 811.11,185.89 C811.183333,181.71 811.22,177.64 811.22,173.68 C811.22,169.72 811.256667,165.613333 811.33,161.36 C811.403333,157.106667 811.44,152.34 811.44,147.06 C811.44,144.566667 811.366667,142.036667 811.22,139.47 C811.073333,136.903333 810.706667,135.106667 810.12,134.08 C808.653333,131.146667 806.233333,128.69 802.86,126.71 C799.486667,124.73 795.893333,123.74 792.08,123.74 C790.173333,123.74 787.716667,124.18 784.71,125.06 C781.703333,125.94 778.403333,127.113333 774.81,128.58 C771.216667,130.046667 767.44,131.806667 763.48,133.86 C759.52,135.913333 755.633333,138.04 751.82,140.24 C750.646667,140.973333 749.29,141.78 747.75,142.66 C746.21,143.54 744.78,144.566667 743.46,145.74 C742.14,146.913333 741.04,148.233333 740.16,149.7 C739.28,151.166667 738.84,152.78 738.84,154.54 C738.84,156.74 739.683333,158.683333 741.37,160.37 C743.056667,162.056667 745.073333,162.9 747.42,162.9 C749.913333,162.9 752.223333,162.093333 754.35,160.48 C756.476667,158.866667 757.54,157.033333 757.54,154.98 L757.54,145.08 C757.54,144.2 758.053333,143.136667 759.08,141.89 C760.106667,140.643333 761.5,139.396667 763.26,138.15 C765.02,136.903333 767.036667,135.876667 769.31,135.07 C771.583333,134.263333 773.893333,133.86 776.24,133.86 C779.76,133.86 782.62,134.336667 784.82,135.29 C787.02,136.243333 788.743333,137.306667 789.99,138.48 C791.236667,139.653333 792.116667,140.79 792.63,141.89 C793.143333,142.99 793.4,143.686667 793.4,143.98 L793.4,166.64 C791.933333,167.52 790.136667,168.51 788.01,169.61 C785.883333,170.71 783.426667,172.03 780.64,173.57 C777.853333,175.11 774.59,176.98 770.85,179.18 C767.11,181.38 762.82,184.02 757.98,187.1 C753.14,190.18 749.07,193.626667 745.77,197.44 C742.47,201.253333 740.82,205.213333 740.82,209.32 C740.82,213.133333 741.443333,216.36 742.69,219 C743.936667,221.64 745.55,223.803333 747.53,225.49 C749.51,227.176667 751.71,228.35 754.13,229.01 C756.55,229.67 758.933333,230 761.28,230 C765.24,230 768.87,229.376667 772.17,228.13 C775.47,226.883333 778.476667,225.233333 781.19,223.18 C783.903333,221.126667 786.25,218.926667 788.23,216.58 C790.21,214.233333 791.786667,212.106667 792.96,210.2 L793.4,210.42 C793.4,217.753333 795.343333,222.886667 799.23,225.82 C803.116667,228.753333 807.553333,230.22 812.54,230.22 Z M772.5,216.58 C768.246667,216.58 764.8,215.04 762.16,211.96 C759.52,208.88 758.2,205.433333 758.2,201.62 C758.2,197.806667 759.556667,194.396667 762.27,191.39 C764.983333,188.383333 768.21,185.633333 771.95,183.14 C775.69,180.646667 779.54,178.336667 783.5,176.21 C787.46,174.083333 790.76,172.066667 793.4,170.16 L793.4,204.04 C793.4,206.533333 792.52,208.586667 790.76,210.2 C788.266667,212.693333 785.553333,214.38 782.62,215.26 C779.686667,216.14 776.313333,216.58 772.5,216.58 Z M877.22,230.88 C878.246667,230.88 878.98,230.44 879.42,229.56 C880.3,227.653333 881.07,225.966667 881.73,224.5 C882.39,223.033333 883.086667,221.493333 883.82,219.88 C884.553333,218.266667 885.323333,216.543333 886.13,214.71 C886.936667,212.876667 887.926667,210.64 889.1,208 C891.153333,202.866667 893.39,197.22 895.81,191.06 C898.23,184.9 900.686667,178.74 903.18,172.58 C905.673333,166.42 908.056667,160.553333 910.33,154.98 C912.603333,149.406667 914.62,144.566667 916.38,140.46 C917.553333,137.82 919.093333,135.693333 921,134.08 C922.906667,132.466667 924.96,131.256667 927.16,130.45 C929.36,129.643333 931.523333,129.093333 933.65,128.8 C935.776667,128.506667 937.573333,128.36 939.04,128.36 L939.04,125.94 L896.36,125.94 L896.36,128.14 C897.68,128.286667 899.22,128.36 900.98,128.36 C902.74,128.36 904.426667,128.58 906.04,129.02 C907.653333,129.46 909.01,130.23 910.11,131.33 C911.21,132.43 911.76,134.006667 911.76,136.06 C911.76,137.38 910.843333,140.753333 909.01,146.18 C907.176667,151.606667 904.94,157.913333 902.3,165.1 C899.66,172.286667 896.873333,179.62 893.94,187.1 C891.006667,194.58 888.44,201.033333 886.24,206.46 C884.92,202.94 883.306667,198.833333 881.4,194.14 C879.493333,189.446667 877.55,184.606667 875.57,179.62 C873.59,174.633333 871.646667,169.646667 869.74,164.66 C867.833333,159.673333 866.11,155.126667 864.57,151.02 C863.03,146.913333 861.783333,143.466667 860.83,140.68 C859.876667,137.893333 859.4,136.133333 859.4,135.4 C859.4,133.786667 860.023333,132.576667 861.27,131.77 C862.516667,130.963333 864.02,130.34 865.78,129.9 C867.54,129.46 869.41,129.13 871.39,128.91 C873.37,128.69 875.02,128.506667 876.34,128.36 L876.34,125.94 L823.32,125.94 L823.32,128.36 C828.16,128.653333 831.496667,129.35 833.33,130.45 C835.163333,131.55 836.52,132.54 837.4,133.42 C838.133333,134.74 838.94,136.426667 839.82,138.48 C840.7,140.533333 841.58,142.66 842.46,144.86 C843.34,147.06 844.183333,149.15 844.99,151.13 C845.796667,153.11 846.42,154.686667 846.86,155.86 C849.94,163.926667 852.726667,171.186667 855.22,177.64 C857.713333,184.093333 860.06,190.143333 862.26,195.79 C864.46,201.436667 866.586667,206.936667 868.64,212.29 C870.693333,217.643333 872.893333,223.326667 875.24,229.34 C875.386667,229.633333 875.606667,229.963333 875.9,230.33 C876.193333,230.696667 876.633333,230.88 877.22,230.88 Z M981.94,230.22 C987.953333,230.22 993.416667,229.12 998.33,226.92 C1003.24333,224.72 1007.46,221.933333 1010.98,218.56 C1014.5,215.186667 1017.28667,211.483333 1019.34,207.45 C1021.39333,203.416667 1022.71333,199.786667 1023.3,196.56 L1021.54,196.12 C1019.78,201.546667 1016.15,206.13 1010.65,209.87 C1005.15,213.61 998.733333,215.48 991.4,215.48 C984.653333,215.48 978.713333,214.233333 973.58,211.74 C968.446667,209.246667 964.193333,205.836667 960.82,201.51 C957.446667,197.183333 954.88,192.196667 953.12,186.55 C951.36,180.903333 950.48,175 950.48,168.84 C950.48,167.226667 950.553333,165.65 950.7,164.11 C950.846667,162.57 950.92,161.213333 950.92,160.04 L1021.54,160.04 C1021.1,153.88 1019.70667,148.526667 1017.36,143.98 C1015.01333,139.433333 1011.97,135.656667 1008.23,132.65 C1004.49,129.643333 1000.09,127.406667 995.03,125.94 C989.97,124.473333 984.58,123.74 978.86,123.74 C971.82,123.74 965.403333,125.243333 959.61,128.25 C953.816667,131.256667 948.903333,135.18 944.87,140.02 C940.836667,144.86 937.72,150.323333 935.52,156.41 C933.32,162.496667 932.22,168.62 932.22,174.78 C932.22,182.406667 933.393333,189.63 935.74,196.45 C938.086667,203.27 941.423333,209.21 945.75,214.27 C950.076667,219.33 955.32,223.253333 961.48,226.04 C967.64,228.826667 974.46,230.22 981.94,230.22 Z M960.38,156.96 L951.36,156.96 L951.36,156.96 C951.653333,155.2 952.46,152.67 953.78,149.37 C955.1,146.07 956.97,142.806667 959.39,139.58 C961.81,136.353333 964.67,133.53 967.97,131.11 C971.27,128.69 974.973333,127.48 979.08,127.48 C985.386667,127.48 990.41,129.423333 994.15,133.31 C997.89,137.196667 999.76,141.853333 999.76,147.28 C999.76,149.333333 999.503333,150.873333 998.99,151.9 C998.476667,152.926667 997.706667,154.026667 996.68,155.2 C995.213333,155.786667 993.526667,156.153333 991.62,156.3 C989.713333,156.446667 987.66,156.52 985.46,156.52 C982.086667,156.52 979.006667,156.556667 976.22,156.63 C973.433333,156.703333 970.756667,156.776667 968.19,156.85 C965.623333,156.923333 963.02,156.96 960.38,156.96 Z" id="Unisave"></path>
        </g>
    </g>
</svg>