<?xml version="1.0" encoding="UTF-8"?>
<svg width="796px" height="161px" viewBox="0 0 796 161" version="1.1" xmlns="http://www.w3.org/2000/svg" xmlns:xlink="http://www.w3.org/1999/xlink">
    <!-- Generator: Sketch 57.1 (83088) - https://sketch.com -->
    <title>Uniscam-White</title>
    <desc>Created with Sketch.</desc>
    <g id="页面-1" stroke="none" stroke-width="1" fill="none" fill-rule="evenodd">
        <g id="编组" transform="translate(-299.000000, 0.000000)" fill="#FFFFFF" fill-rule="nonzero">
            <path d="M383.7,160.6 C394.406667,160.6 403.426667,159.463333 410.76,157.19 C418.093333,154.916667 424.106667,151.836667 428.8,147.95 C433.493333,144.063333 437.123333,139.736667 439.69,134.97 C442.256667,130.203333 444.126667,125.436667 445.3,120.67 C446.473333,115.903333 447.17,111.393333 447.39,107.14 C447.61,102.886667 447.793333,99.366667 447.94,96.58 C448.233333,86.753333 448.49,77.953333 448.71,70.18 C448.93,62.406667 449.113333,55.366667 449.26,49.06 C449.26,45.686667 449.333333,42.276667 449.48,38.83 C449.626667,35.383333 449.846667,32.12 450.14,29.04 C450.433333,25.96 450.763333,23.2466667 451.13,20.9 C451.496667,18.5533333 451.9,16.8666667 452.34,15.84 C454.1,11.5866667 456.556667,8.4333333 459.71,6.38 C462.863333,4.3266667 467.153333,2.9333333 472.58,2.2 L472.58,0 L418.02,0 L418.02,2.2 C425.06,3.2266667 430.376667,5.0233333 433.97,7.59 C437.563333,10.1566667 440.093333,13.4933333 441.56,17.6 C442.146667,19.0666667 442.586667,21.01 442.88,23.43 C443.173333,25.85 443.393333,28.4533333 443.54,31.24 C443.686667,34.026667 443.796667,36.96 443.87,40.04 C443.943333,43.12 443.98,46.126667 443.98,49.06 L443.98,86.46 L443.98,86.46 C443.98,91.446667 443.796667,96.543333 443.43,101.75 C443.063333,106.956667 442.33,112.053333 441.23,117.04 C440.13,122.026667 438.443333,126.72 436.17,131.12 C433.896667,135.52 430.816667,139.406667 426.93,142.78 C423.043333,146.153333 418.203333,148.793333 412.41,150.7 C406.616667,152.606667 399.54,153.56 391.18,153.56 C383.846667,153.56 377.32,152.35 371.6,149.93 C365.88,147.51 361.04,144.063333 357.08,139.59 C353.12,135.116667 350.04,129.69 347.84,123.31 C345.64,116.93 344.466667,109.853333 344.32,102.08 C344.32,98.56 344.283333,95.223333 344.21,92.07 C344.136667,88.916667 344.1,85.653333 344.1,82.28 L344.1,38.5 L344.1,38.5 C344.1,35.713333 344.136667,32.853333 344.21,29.92 C344.283333,26.9866667 344.393333,23.6133333 344.54,19.8 C344.686667,16.4266667 345.42,13.64 346.74,11.44 C348.06,9.24 349.673333,7.5166667 351.58,6.27 C353.486667,5.0233333 355.613333,4.1066667 357.96,3.52 C360.306667,2.9333333 362.506667,2.4933333 364.56,2.2 L364.56,0 L299,0 L299,2.2 C302.813333,2.64 306.223333,3.41 309.23,4.51 C312.236667,5.61 314.766667,7.4066667 316.82,9.9 C317.7,10.9266667 318.36,12.3566667 318.8,14.19 C319.24,16.0233333 319.57,18.0766667 319.79,20.35 C320.01,22.6233333 320.12,25.08 320.12,27.72 L320.12,64.9 C320.12,72.966667 320.083333,80.3 320.01,86.9 C319.942308,92.992308 319.905858,98.022367 319.900651,101.990178 L319.9,102.96 C319.9,104.72 320.01,107.396667 320.23,110.99 C320.45,114.583333 321.183333,118.543333 322.43,122.87 C323.676667,127.196667 325.583333,131.596667 328.15,136.07 C330.716667,140.543333 334.346667,144.65 339.04,148.39 C343.733333,152.13 349.71,155.1 356.97,157.3 C364.23,159.5 373.14,160.6 383.7,160.6 Z M523.4,158.4 L523.4,156.2 C521.933333,155.906667 520.54,155.723333 519.22,155.65 C517.9,155.576667 516.726667,155.393333 515.7,155.1 C514.673333,154.806667 513.793333,154.33 513.06,153.67 C512.326667,153.01 511.813333,151.946667 511.52,150.48 L511.52,78.32 C515.48,74.36 519.073333,71.353333 522.3,69.3 C525.526667,67.246667 529.56,66.22 534.4,66.22 C542.026667,66.22 547.453333,68.823333 550.68,74.03 C553.906667,79.236667 555.52,86.093333 555.52,94.6 L555.52,150.04 C555.52,152.386667 554.346667,153.89 552,154.55 C549.653333,155.21 546.5,155.686667 542.54,155.98 L542.54,158.4 L587.42,158.4 L587.42,156.42 C586.1,156.273333 584.67,156.09 583.13,155.87 C581.59,155.65 580.16,155.356667 578.84,154.99 C577.52,154.623333 576.383333,154.073333 575.43,153.34 C574.476667,152.606667 574,151.726667 574,150.7 L574,86.02 C574,76.046667 571.726667,67.906667 567.18,61.6 C562.633333,55.293333 556.106667,52.14 547.6,52.14 C543.64,52.14 539.826667,52.91 536.16,54.45 C532.493333,55.99 529.12,57.933333 526.04,60.28 C522.96,62.626667 520.21,65.23 517.79,68.09 C515.37,70.95 513.353333,73.626667 511.74,76.12 L511.3,75.9 L511.3,52.14 L509.98,52.14 L481.16,62.48 L481.16,63.8 C482.92,64.533333 484.68,65.376667 486.44,66.33 C488.2,67.283333 489.74,68.126667 491.06,68.86 C492.086667,69.593333 492.71,70.253333 492.93,70.84 C493.15,71.426667 493.26,72.306667 493.26,73.48 L493.26,149.16 C493.26,151.506667 492.05,153.193333 489.63,154.22 C487.21,155.246667 484.313333,155.906667 480.94,156.2 L480.94,158.4 L523.4,158.4 Z M616.46,29.26 C619.833333,29.26 622.656667,28.1233333 624.93,25.85 C627.203333,23.5766667 628.34,20.7533333 628.34,17.38 C628.34,14.0066667 627.203333,11.22 624.93,9.02 C622.656667,6.82 619.833333,5.72 616.46,5.72 C613.086667,5.72 610.263333,6.82 607.99,9.02 C605.716667,11.22 604.58,14.0066667 604.58,17.38 C604.58,20.6066667 605.753333,23.3933333 608.1,25.74 C610.446667,28.0866667 613.233333,29.26 616.46,29.26 Z M640.66,158.4 L640.66,156.2 C639.193333,155.906667 637.69,155.723333 636.15,155.65 C634.61,155.576667 633.18,155.393333 631.86,155.1 C630.54,154.806667 629.403333,154.33 628.45,153.67 C627.496667,153.01 626.873333,151.946667 626.58,150.48 L626.58,52.14 L625.26,52.14 L595.56,61.82 L595.56,63.14 C597.613333,63.873333 599.556667,64.68 601.39,65.56 C603.223333,66.44 604.8,67.32 606.12,68.2 C607.146667,68.933333 607.77,69.74 607.99,70.62 C608.21,71.5 608.32,72.526667 608.32,73.7 L608.32,149.16 C608.32,150.48 607.843333,151.58 606.89,152.46 C605.936667,153.34 604.763333,154.036667 603.37,154.55 C601.976667,155.063333 600.4,155.43 598.64,155.65 C596.88,155.87 595.12,156.053333 593.36,156.2 L593.36,158.4 L640.66,158.4 Z M685.32,158.84 C690.746667,158.84 695.916667,158.253333 700.83,157.08 C705.743333,155.906667 710.106667,154 713.92,151.36 C717.733333,148.72 720.776667,145.31 723.05,141.13 C725.323333,136.95 726.46,132 726.46,126.28 C726.46,118.8 724.15,112.493333 719.53,107.36 C714.91,102.226667 709.3,98.853333 702.7,97.24 C699.913333,96.506667 696.613333,95.736667 692.8,94.93 C688.986667,94.123333 685.466667,93.353333 682.24,92.62 C677.546667,91.446667 673.66,89.686667 670.58,87.34 C667.5,84.993333 665.96,81.106667 665.96,75.68 C665.96,72.306667 666.546667,69.336667 667.72,66.77 C668.893333,64.203333 670.396667,62.076667 672.23,60.39 C674.063333,58.703333 676.19,57.42 678.61,56.54 C681.03,55.66 683.486667,55.22 685.98,55.22 C690.086667,55.22 693.716667,55.953333 696.87,57.42 C700.023333,58.886667 702.846667,60.976667 705.34,63.69 C707.833333,66.403333 710.106667,69.63 712.16,73.37 C714.213333,77.11 716.266667,81.18 718.32,85.58 L720.08,85.14 L717.44,57.86 C713.186667,56.246667 708.713333,54.89 704.02,53.79 C699.326667,52.69 693.9,52.14 687.74,52.14 C682.9,52.14 678.353333,52.836667 674.1,54.23 C669.846667,55.623333 666.106667,57.64 662.88,60.28 C659.653333,62.92 657.086667,66.073333 655.18,69.74 C653.273333,73.406667 652.32,77.513333 652.32,82.06 C652.32,88.66 654.043333,94.306667 657.49,99 C660.936667,103.693333 665.446667,106.993333 671.02,108.9 C673.953333,109.926667 677.253333,110.88 680.92,111.76 C684.586667,112.64 688.4,113.446667 692.36,114.18 C697.346667,115.206667 701.27,117.223333 704.13,120.23 C706.99,123.236667 708.42,127.013333 708.42,131.56 C708.42,139.92 706.33,146.116667 702.15,150.15 C697.97,154.183333 692.36,156.2 685.32,156.2 C680.48,156.2 676.3,155.136667 672.78,153.01 C669.26,150.883333 666.253333,148.17 663.76,144.87 C661.266667,141.57 659.14,137.976667 657.38,134.09 C655.62,130.203333 654.153333,126.5 652.98,122.98 L651.22,122.98 L651.22,152.02 C656.06,154.22 661.34,155.906667 667.06,157.08 C672.78,158.253333 678.866667,158.84 685.32,158.84 Z M782.34,159.06 C787.913333,159.06 793.083333,158.253333 797.85,156.64 C802.616667,155.026667 806.906667,152.716667 810.72,149.71 C814.533333,146.703333 817.76,143.256667 820.4,139.37 C823.04,135.483333 825.02,131.34 826.34,126.94 L824.58,126.06 C821.06,131.926667 816.66,136.363333 811.38,139.37 C806.1,142.376667 798.913333,143.88 789.82,143.88 C784.1,143.88 778.93,142.816667 774.31,140.69 C769.69,138.563333 765.766667,135.556667 762.54,131.67 C759.313333,127.783333 756.82,123.09 755.06,117.59 C753.3,112.09 752.42,106.04 752.42,99.44 C752.42,93.426667 753.226667,87.78 754.84,82.5 C756.453333,77.22 758.653333,72.6 761.44,68.64 C764.226667,64.68 767.526667,61.526667 771.34,59.18 C775.153333,56.833333 779.333333,55.66 783.88,55.66 C790.04,55.66 794.55,57.456667 797.41,61.05 C800.27,64.643333 801.7,69.153333 801.7,74.58 C801.7,77.513333 801.333333,80.006667 800.6,82.06 C801.186667,84.26 802.47,86.093333 804.45,87.56 C806.43,89.026667 808.666667,89.76 811.16,89.76 C814.24,89.76 816.916667,88.623333 819.19,86.35 C821.463333,84.076667 822.6,81.4 822.6,78.32 C822.6,74.066667 821.463333,70.326667 819.19,67.1 C816.916667,63.873333 813.946667,61.16 810.28,58.96 C806.613333,56.76 802.433333,55.073333 797.74,53.9 C793.046667,52.726667 788.28,52.14 783.44,52.14 C776.253333,52.14 769.616667,53.606667 763.53,56.54 C757.443333,59.473333 752.2,63.36 747.8,68.2 C743.4,73.04 739.953333,78.65 737.46,85.03 C734.966667,91.41 733.72,98.12 733.72,105.16 C733.72,112.64 734.93,119.68 737.35,126.28 C739.77,132.88 743.106667,138.636667 747.36,143.55 C751.613333,148.463333 756.746667,152.276667 762.76,154.99 C768.773333,157.703333 775.3,159.06 782.34,159.06 Z M904.88,158.62 C907.96,158.62 910.783333,158.07 913.35,156.97 C915.916667,155.87 918.153333,154.256667 920.06,152.13 C921.966667,150.003333 923.506667,147.62 924.68,144.98 C925.853333,142.34 926.513333,139.626667 926.66,136.84 L925.34,136.84 C924.753333,139.04 923.653333,140.836667 922.04,142.23 C920.426667,143.623333 917.933333,144.32 914.56,144.32 C911.626667,144.32 909.023333,143.256667 906.75,141.13 C904.476667,139.003333 903.34,134.64 903.34,128.04 C903.34,123.053333 903.376667,118.47 903.45,114.29 C903.523333,110.11 903.56,106.04 903.56,102.08 C903.56,98.12 903.596667,94.013333 903.67,89.76 C903.743333,85.506667 903.78,80.74 903.78,75.46 C903.78,72.966667 903.706667,70.436667 903.56,67.87 C903.413333,65.303333 903.046667,63.506667 902.46,62.48 C900.993333,59.546667 898.573333,57.09 895.2,55.11 C891.826667,53.13 888.233333,52.14 884.42,52.14 C882.513333,52.14 880.056667,52.58 877.05,53.46 C874.043333,54.34 870.743333,55.513333 867.15,56.98 C863.556667,58.446667 859.78,60.206667 855.82,62.26 C851.86,64.313333 847.973333,66.44 844.16,68.64 C842.986667,69.373333 841.63,70.18 840.09,71.06 C838.55,71.94 837.12,72.966667 835.8,74.14 C834.48,75.313333 833.38,76.633333 832.5,78.1 C831.62,79.566667 831.18,81.18 831.18,82.94 C831.18,85.14 832.023333,87.083333 833.71,88.77 C835.396667,90.456667 837.413333,91.3 839.76,91.3 C842.253333,91.3 844.563333,90.493333 846.69,88.88 C848.816667,87.266667 849.88,85.433333 849.88,83.38 L849.88,73.48 C849.88,72.6 850.393333,71.536667 851.42,70.29 C852.446667,69.043333 853.84,67.796667 855.6,66.55 C857.36,65.303333 859.376667,64.276667 861.65,63.47 C863.923333,62.663333 866.233333,62.26 868.58,62.26 C872.1,62.26 874.96,62.736667 877.16,63.69 C879.36,64.643333 881.083333,65.706667 882.33,66.88 C883.576667,68.053333 884.456667,69.19 884.97,70.29 C885.483333,71.39 885.74,72.086667 885.74,72.38 L885.74,95.04 C884.273333,95.92 882.476667,96.91 880.35,98.01 C878.223333,99.11 875.766667,100.43 872.98,101.97 C870.193333,103.51 866.93,105.38 863.19,107.58 C859.45,109.78 855.16,112.42 850.32,115.5 C845.48,118.58 841.41,122.026667 838.11,125.84 C834.81,129.653333 833.16,133.613333 833.16,137.72 C833.16,141.533333 833.783333,144.76 835.03,147.4 C836.276667,150.04 837.89,152.203333 839.87,153.89 C841.85,155.576667 844.05,156.75 846.47,157.41 C848.89,158.07 851.273333,158.4 853.62,158.4 C857.58,158.4 861.21,157.776667 864.51,156.53 C867.81,155.283333 870.816667,153.633333 873.53,151.58 C876.243333,149.526667 878.59,147.326667 880.57,144.98 C882.55,142.633333 884.126667,140.506667 885.3,138.6 L885.74,138.82 C885.74,146.153333 887.683333,151.286667 891.57,154.22 C895.456667,157.153333 899.893333,158.62 904.88,158.62 Z M864.84,144.98 C860.586667,144.98 857.14,143.44 854.5,140.36 C851.86,137.28 850.54,133.833333 850.54,130.02 C850.54,126.206667 851.896667,122.796667 854.61,119.79 C857.323333,116.783333 860.55,114.033333 864.29,111.54 C868.03,109.046667 871.88,106.736667 875.84,104.61 C879.8,102.483333 883.1,100.466667 885.74,98.56 L885.74,132.44 C885.74,134.933333 884.86,136.986667 883.1,138.6 C880.606667,141.093333 877.893333,142.78 874.96,143.66 C872.026667,144.54 868.653333,144.98 864.84,144.98 Z M971.98,158.4 L971.98,156.2 C970.513333,155.906667 969.12,155.723333 967.8,155.65 C966.48,155.576667 965.27,155.393333 964.17,155.1 C963.07,154.806667 962.153333,154.33 961.42,153.67 C960.686667,153.01 960.173333,151.946667 959.88,150.48 L959.88,78.32 C963.693333,74.213333 967.14,71.133333 970.22,69.08 C973.3,67.026667 977.26,66 982.1,66 C989.726667,66 995.043333,68.456667 998.05,73.37 C1001.05667,78.283333 1002.56,85.066667 1002.56,93.72 L1002.56,150.04 C1002.56,152.386667 1001.38667,153.89 999.04,154.55 C996.693333,155.21 993.54,155.686667 989.58,155.98 L989.58,158.4 L1032.92,158.4 L1032.92,156.42 C1031.6,156.273333 1030.24333,156.09 1028.85,155.87 C1027.45667,155.65 1026.17333,155.356667 1025,154.99 C1023.82667,154.623333 1022.87333,154.073333 1022.14,153.34 C1021.40667,152.606667 1021.04,151.726667 1021.04,150.7 L1021.04,79.64 C1024.56,75.68 1027.93333,72.416667 1031.16,69.85 C1034.38667,67.283333 1038.42,66 1043.26,66 C1050.88667,66 1056.20333,68.53 1059.21,73.59 C1062.21667,78.65 1063.72,85.433333 1063.72,93.94 L1063.72,150.04 C1063.72,152.386667 1062.69333,153.89 1060.64,154.55 C1058.58667,155.21 1055.58,155.686667 1051.62,155.98 L1051.62,158.4 L1094.96,158.4 L1094.96,156.42 C1093.64,156.273333 1092.24667,156.09 1090.78,155.87 C1089.31333,155.65 1087.95667,155.356667 1086.71,154.99 C1085.46333,154.623333 1084.4,154.073333 1083.52,153.34 C1082.64,152.606667 1082.2,151.726667 1082.2,150.7 L1082.2,85.14 C1082.2,75.46 1080.03667,67.54 1075.71,61.38 C1071.38333,55.22 1064.96667,52.14 1056.46,52.14 C1052.5,52.14 1048.65,52.946667 1044.91,54.56 C1041.17,56.173333 1037.76,58.263333 1034.68,60.83 C1031.6,63.396667 1028.88667,66.183333 1026.54,69.19 C1024.19333,72.196667 1022.36,75.02 1021.04,77.66 L1020.38,77.66 C1019.35333,69.886667 1016.67667,63.69 1012.35,59.07 C1008.02333,54.45 1002.34,52.14 995.3,52.14 C991.34,52.14 987.563333,52.91 983.97,54.45 C980.376667,55.99 977.04,57.896667 973.96,60.17 C970.88,62.443333 968.166667,65.01 965.82,67.87 C963.473333,70.73 961.566667,73.48 960.1,76.12 L959.66,75.9 L959.66,52.14 L958.34,52.14 L929.52,62.48 L929.52,64.24 C931.28,64.973333 933.04,65.816667 934.8,66.77 C936.56,67.723333 938.1,68.566667 939.42,69.3 C940.446667,70.033333 941.07,70.693333 941.29,71.28 C941.51,71.866667 941.62,72.746667 941.62,73.92 L941.62,149.16 C941.62,151.506667 940.41,153.193333 937.99,154.22 C935.57,155.246667 932.673333,155.906667 929.3,156.2 L929.3,158.4 L971.98,158.4 Z" id="Uniscam-White"></path>
        </g>
    </g>
</svg>