<?xml version="1.0" encoding="UTF-8"?>
<svg width="797px" height="162px" viewBox="0 0 797 162" version="1.1" xmlns="http://www.w3.org/2000/svg" xmlns:xlink="http://www.w3.org/1999/xlink">
    <!-- Generator: Sketch 57.1 (83088) - https://sketch.com -->
    <title>Uniscam</title>
    <desc>Created with Sketch.</desc>
    <g id="页面-1" stroke="none" stroke-width="1" fill="none" fill-rule="evenodd">
        <g id="编组" transform="translate(-298.000000, -264.000000)" fill="#333333" fill-rule="nonzero">
            <path d="M383.4,425.2 C394.106667,425.2 403.126667,424.063333 410.46,421.79 C417.793333,419.516667 423.806667,416.436667 428.5,412.55 C433.193333,408.663333 436.823333,404.336667 439.39,399.57 C441.956667,394.803333 443.826667,390.036667 445,385.27 C446.173333,380.503333 446.87,375.993333 447.09,371.74 C447.31,367.486667 447.493333,363.966667 447.64,361.18 C447.933333,351.353333 448.19,342.553333 448.41,334.78 C448.63,327.006667 448.813333,319.966667 448.96,313.66 C448.96,310.286667 449.033333,306.876667 449.18,303.43 C449.326667,299.983333 449.546667,296.72 449.84,293.64 C450.133333,290.56 450.463333,287.846667 450.83,285.5 C451.196667,283.153333 451.6,281.466667 452.04,280.44 C453.8,276.186667 456.256667,273.033333 459.41,270.98 C462.563333,268.926667 466.853333,267.533333 472.28,266.8 L472.28,264.6 L417.72,264.6 L417.72,266.8 C424.76,267.826667 430.076667,269.623333 433.67,272.19 C437.263333,274.756667 439.793333,278.093333 441.26,282.2 C441.846667,283.666667 442.286667,285.61 442.58,288.03 C442.873333,290.45 443.093333,293.053333 443.24,295.84 C443.386667,298.626667 443.496667,301.56 443.57,304.64 C443.643333,307.72 443.68,310.726667 443.68,313.66 L443.68,351.06 L443.68,351.06 C443.68,356.046667 443.496667,361.143333 443.13,366.35 C442.763333,371.556667 442.03,376.653333 440.93,381.64 C439.83,386.626667 438.143333,391.32 435.87,395.72 C433.596667,400.12 430.516667,404.006667 426.63,407.38 C422.743333,410.753333 417.903333,413.393333 412.11,415.3 C406.316667,417.206667 399.24,418.16 390.88,418.16 C383.546667,418.16 377.02,416.95 371.3,414.53 C365.58,412.11 360.74,408.663333 356.78,404.19 C352.82,399.716667 349.74,394.29 347.54,387.91 C345.34,381.53 344.166667,374.453333 344.02,366.68 C344.02,363.16 343.983333,359.823333 343.91,356.67 C343.836667,353.516667 343.8,350.253333 343.8,346.88 L343.8,303.1 L343.8,303.1 C343.8,300.313333 343.836667,297.453333 343.91,294.52 C343.983333,291.586667 344.093333,288.213333 344.24,284.4 C344.386667,281.026667 345.12,278.24 346.44,276.04 C347.76,273.84 349.373333,272.116667 351.28,270.87 C353.186667,269.623333 355.313333,268.706667 357.66,268.12 C360.006667,267.533333 362.206667,267.093333 364.26,266.8 L364.26,264.6 L298.7,264.6 L298.7,266.8 C302.513333,267.24 305.923333,268.01 308.93,269.11 C311.936667,270.21 314.466667,272.006667 316.52,274.5 C317.4,275.526667 318.06,276.956667 318.5,278.79 C318.94,280.623333 319.27,282.676667 319.49,284.95 C319.71,287.223333 319.82,289.68 319.82,292.32 L319.82,329.5 C319.82,337.566667 319.783333,344.9 319.71,351.5 C319.642308,357.592308 319.605858,362.622367 319.600651,366.590178 L319.6,367.56 C319.6,369.32 319.71,371.996667 319.93,375.59 C320.15,379.183333 320.883333,383.143333 322.13,387.47 C323.376667,391.796667 325.283333,396.196667 327.85,400.67 C330.416667,405.143333 334.046667,409.25 338.74,412.99 C343.433333,416.73 349.41,419.7 356.67,421.9 C363.93,424.1 372.84,425.2 383.4,425.2 Z M523.1,423 L523.1,420.8 C521.633333,420.506667 520.24,420.323333 518.92,420.25 C517.6,420.176667 516.426667,419.993333 515.4,419.7 C514.373333,419.406667 513.493333,418.93 512.76,418.27 C512.026667,417.61 511.513333,416.546667 511.22,415.08 L511.22,342.92 C515.18,338.96 518.773333,335.953333 522,333.9 C525.226667,331.846667 529.26,330.82 534.1,330.82 C541.726667,330.82 547.153333,333.423333 550.38,338.63 C553.606667,343.836667 555.22,350.693333 555.22,359.2 L555.22,414.64 C555.22,416.986667 554.046667,418.49 551.7,419.15 C549.353333,419.81 546.2,420.286667 542.24,420.58 L542.24,423 L587.12,423 L587.12,421.02 C585.8,420.873333 584.37,420.69 582.83,420.47 C581.29,420.25 579.86,419.956667 578.54,419.59 C577.22,419.223333 576.083333,418.673333 575.13,417.94 C574.176667,417.206667 573.7,416.326667 573.7,415.3 L573.7,350.62 C573.7,340.646667 571.426667,332.506667 566.88,326.2 C562.333333,319.893333 555.806667,316.74 547.3,316.74 C543.34,316.74 539.526667,317.51 535.86,319.05 C532.193333,320.59 528.82,322.533333 525.74,324.88 C522.66,327.226667 519.91,329.83 517.49,332.69 C515.07,335.55 513.053333,338.226667 511.44,340.72 L511,340.5 L511,316.74 L509.68,316.74 L480.86,327.08 L480.86,328.4 C482.62,329.133333 484.38,329.976667 486.14,330.93 C487.9,331.883333 489.44,332.726667 490.76,333.46 C491.786667,334.193333 492.41,334.853333 492.63,335.44 C492.85,336.026667 492.96,336.906667 492.96,338.08 L492.96,413.76 C492.96,416.106667 491.75,417.793333 489.33,418.82 C486.91,419.846667 484.013333,420.506667 480.64,420.8 L480.64,423 L523.1,423 Z M616.16,293.86 C619.533333,293.86 622.356667,292.723333 624.63,290.45 C626.903333,288.176667 628.04,285.353333 628.04,281.98 C628.04,278.606667 626.903333,275.82 624.63,273.62 C622.356667,271.42 619.533333,270.32 616.16,270.32 C612.786667,270.32 609.963333,271.42 607.69,273.62 C605.416667,275.82 604.28,278.606667 604.28,281.98 C604.28,285.206667 605.453333,287.993333 607.8,290.34 C610.146667,292.686667 612.933333,293.86 616.16,293.86 Z M640.36,423 L640.36,420.8 C638.893333,420.506667 637.39,420.323333 635.85,420.25 C634.31,420.176667 632.88,419.993333 631.56,419.7 C630.24,419.406667 629.103333,418.93 628.15,418.27 C627.196667,417.61 626.573333,416.546667 626.28,415.08 L626.28,316.74 L624.96,316.74 L595.26,326.42 L595.26,327.74 C597.313333,328.473333 599.256667,329.28 601.09,330.16 C602.923333,331.04 604.5,331.92 605.82,332.8 C606.846667,333.533333 607.47,334.34 607.69,335.22 C607.91,336.1 608.02,337.126667 608.02,338.3 L608.02,413.76 C608.02,415.08 607.543333,416.18 606.59,417.06 C605.636667,417.94 604.463333,418.636667 603.07,419.15 C601.676667,419.663333 600.1,420.03 598.34,420.25 C596.58,420.47 594.82,420.653333 593.06,420.8 L593.06,423 L640.36,423 Z M685.02,423.44 C690.446667,423.44 695.616667,422.853333 700.53,421.68 C705.443333,420.506667 709.806667,418.6 713.62,415.96 C717.433333,413.32 720.476667,409.91 722.75,405.73 C725.023333,401.55 726.16,396.6 726.16,390.88 C726.16,383.4 723.85,377.093333 719.23,371.96 C714.61,366.826667 709,363.453333 702.4,361.84 C699.613333,361.106667 696.313333,360.336667 692.5,359.53 C688.686667,358.723333 685.166667,357.953333 681.94,357.22 C677.246667,356.046667 673.36,354.286667 670.28,351.94 C667.2,349.593333 665.66,345.706667 665.66,340.28 C665.66,336.906667 666.246667,333.936667 667.42,331.37 C668.593333,328.803333 670.096667,326.676667 671.93,324.99 C673.763333,323.303333 675.89,322.02 678.31,321.14 C680.73,320.26 683.186667,319.82 685.68,319.82 C689.786667,319.82 693.416667,320.553333 696.57,322.02 C699.723333,323.486667 702.546667,325.576667 705.04,328.29 C707.533333,331.003333 709.806667,334.23 711.86,337.97 C713.913333,341.71 715.966667,345.78 718.02,350.18 L719.78,349.74 L717.14,322.46 C712.886667,320.846667 708.413333,319.49 703.72,318.39 C699.026667,317.29 693.6,316.74 687.44,316.74 C682.6,316.74 678.053333,317.436667 673.8,318.83 C669.546667,320.223333 665.806667,322.24 662.58,324.88 C659.353333,327.52 656.786667,330.673333 654.88,334.34 C652.973333,338.006667 652.02,342.113333 652.02,346.66 C652.02,353.26 653.743333,358.906667 657.19,363.6 C660.636667,368.293333 665.146667,371.593333 670.72,373.5 C673.653333,374.526667 676.953333,375.48 680.62,376.36 C684.286667,377.24 688.1,378.046667 692.06,378.78 C697.046667,379.806667 700.97,381.823333 703.83,384.83 C706.69,387.836667 708.12,391.613333 708.12,396.16 C708.12,404.52 706.03,410.716667 701.85,414.75 C697.67,418.783333 692.06,420.8 685.02,420.8 C680.18,420.8 676,419.736667 672.48,417.61 C668.96,415.483333 665.953333,412.77 663.46,409.47 C660.966667,406.17 658.84,402.576667 657.08,398.69 C655.32,394.803333 653.853333,391.1 652.68,387.58 L650.92,387.58 L650.92,416.62 C655.76,418.82 661.04,420.506667 666.76,421.68 C672.48,422.853333 678.566667,423.44 685.02,423.44 Z M782.04,423.66 C787.613333,423.66 792.783333,422.853333 797.55,421.24 C802.316667,419.626667 806.606667,417.316667 810.42,414.31 C814.233333,411.303333 817.46,407.856667 820.1,403.97 C822.74,400.083333 824.72,395.94 826.04,391.54 L824.28,390.66 C820.76,396.526667 816.36,400.963333 811.08,403.97 C805.8,406.976667 798.613333,408.48 789.52,408.48 C783.8,408.48 778.63,407.416667 774.01,405.29 C769.39,403.163333 765.466667,400.156667 762.24,396.27 C759.013333,392.383333 756.52,387.69 754.76,382.19 C753,376.69 752.12,370.64 752.12,364.04 C752.12,358.026667 752.926667,352.38 754.54,347.1 C756.153333,341.82 758.353333,337.2 761.14,333.24 C763.926667,329.28 767.226667,326.126667 771.04,323.78 C774.853333,321.433333 779.033333,320.26 783.58,320.26 C789.74,320.26 794.25,322.056667 797.11,325.65 C799.97,329.243333 801.4,333.753333 801.4,339.18 C801.4,342.113333 801.033333,344.606667 800.3,346.66 C800.886667,348.86 802.17,350.693333 804.15,352.16 C806.13,353.626667 808.366667,354.36 810.86,354.36 C813.94,354.36 816.616667,353.223333 818.89,350.95 C821.163333,348.676667 822.3,346 822.3,342.92 C822.3,338.666667 821.163333,334.926667 818.89,331.7 C816.616667,328.473333 813.646667,325.76 809.98,323.56 C806.313333,321.36 802.133333,319.673333 797.44,318.5 C792.746667,317.326667 787.98,316.74 783.14,316.74 C775.953333,316.74 769.316667,318.206667 763.23,321.14 C757.143333,324.073333 751.9,327.96 747.5,332.8 C743.1,337.64 739.653333,343.25 737.16,349.63 C734.666667,356.01 733.42,362.72 733.42,369.76 C733.42,377.24 734.63,384.28 737.05,390.88 C739.47,397.48 742.806667,403.236667 747.06,408.15 C751.313333,413.063333 756.446667,416.876667 762.46,419.59 C768.473333,422.303333 775,423.66 782.04,423.66 Z M904.58,423.22 C907.66,423.22 910.483333,422.67 913.05,421.57 C915.616667,420.47 917.853333,418.856667 919.76,416.73 C921.666667,414.603333 923.206667,412.22 924.38,409.58 C925.553333,406.94 926.213333,404.226667 926.36,401.44 L925.04,401.44 C924.453333,403.64 923.353333,405.436667 921.74,406.83 C920.126667,408.223333 917.633333,408.92 914.26,408.92 C911.326667,408.92 908.723333,407.856667 906.45,405.73 C904.176667,403.603333 903.04,399.24 903.04,392.64 C903.04,387.653333 903.076667,383.07 903.15,378.89 C903.223333,374.71 903.26,370.64 903.26,366.68 C903.26,362.72 903.296667,358.613333 903.37,354.36 C903.443333,350.106667 903.48,345.34 903.48,340.06 C903.48,337.566667 903.406667,335.036667 903.26,332.47 C903.113333,329.903333 902.746667,328.106667 902.16,327.08 C900.693333,324.146667 898.273333,321.69 894.9,319.71 C891.526667,317.73 887.933333,316.74 884.12,316.74 C882.213333,316.74 879.756667,317.18 876.75,318.06 C873.743333,318.94 870.443333,320.113333 866.85,321.58 C863.256667,323.046667 859.48,324.806667 855.52,326.86 C851.56,328.913333 847.673333,331.04 843.86,333.24 C842.686667,333.973333 841.33,334.78 839.79,335.66 C838.25,336.54 836.82,337.566667 835.5,338.74 C834.18,339.913333 833.08,341.233333 832.2,342.7 C831.32,344.166667 830.88,345.78 830.88,347.54 C830.88,349.74 831.723333,351.683333 833.41,353.37 C835.096667,355.056667 837.113333,355.9 839.46,355.9 C841.953333,355.9 844.263333,355.093333 846.39,353.48 C848.516667,351.866667 849.58,350.033333 849.58,347.98 L849.58,338.08 C849.58,337.2 850.093333,336.136667 851.12,334.89 C852.146667,333.643333 853.54,332.396667 855.3,331.15 C857.06,329.903333 859.076667,328.876667 861.35,328.07 C863.623333,327.263333 865.933333,326.86 868.28,326.86 C871.8,326.86 874.66,327.336667 876.86,328.29 C879.06,329.243333 880.783333,330.306667 882.03,331.48 C883.276667,332.653333 884.156667,333.79 884.67,334.89 C885.183333,335.99 885.44,336.686667 885.44,336.98 L885.44,359.64 C883.973333,360.52 882.176667,361.51 880.05,362.61 C877.923333,363.71 875.466667,365.03 872.68,366.57 C869.893333,368.11 866.63,369.98 862.89,372.18 C859.15,374.38 854.86,377.02 850.02,380.1 C845.18,383.18 841.11,386.626667 837.81,390.44 C834.51,394.253333 832.86,398.213333 832.86,402.32 C832.86,406.133333 833.483333,409.36 834.73,412 C835.976667,414.64 837.59,416.803333 839.57,418.49 C841.55,420.176667 843.75,421.35 846.17,422.01 C848.59,422.67 850.973333,423 853.32,423 C857.28,423 860.91,422.376667 864.21,421.13 C867.51,419.883333 870.516667,418.233333 873.23,416.18 C875.943333,414.126667 878.29,411.926667 880.27,409.58 C882.25,407.233333 883.826667,405.106667 885,403.2 L885.44,403.42 C885.44,410.753333 887.383333,415.886667 891.27,418.82 C895.156667,421.753333 899.593333,423.22 904.58,423.22 Z M864.54,409.58 C860.286667,409.58 856.84,408.04 854.2,404.96 C851.56,401.88 850.24,398.433333 850.24,394.62 C850.24,390.806667 851.596667,387.396667 854.31,384.39 C857.023333,381.383333 860.25,378.633333 863.99,376.14 C867.73,373.646667 871.58,371.336667 875.54,369.21 C879.5,367.083333 882.8,365.066667 885.44,363.16 L885.44,397.04 C885.44,399.533333 884.56,401.586667 882.8,403.2 C880.306667,405.693333 877.593333,407.38 874.66,408.26 C871.726667,409.14 868.353333,409.58 864.54,409.58 Z M971.68,423 L971.68,420.8 C970.213333,420.506667 968.82,420.323333 967.5,420.25 C966.18,420.176667 964.97,419.993333 963.87,419.7 C962.77,419.406667 961.853333,418.93 961.12,418.27 C960.386667,417.61 959.873333,416.546667 959.58,415.08 L959.58,342.92 C963.393333,338.813333 966.84,335.733333 969.92,333.68 C973,331.626667 976.96,330.6 981.8,330.6 C989.426667,330.6 994.743333,333.056667 997.75,337.97 C1000.75667,342.883333 1002.26,349.666667 1002.26,358.32 L1002.26,414.64 C1002.26,416.986667 1001.08667,418.49 998.74,419.15 C996.393333,419.81 993.24,420.286667 989.28,420.58 L989.28,423 L1032.62,423 L1032.62,421.02 C1031.3,420.873333 1029.94333,420.69 1028.55,420.47 C1027.15667,420.25 1025.87333,419.956667 1024.7,419.59 C1023.52667,419.223333 1022.57333,418.673333 1021.84,417.94 C1021.10667,417.206667 1020.74,416.326667 1020.74,415.3 L1020.74,344.24 C1024.26,340.28 1027.63333,337.016667 1030.86,334.45 C1034.08667,331.883333 1038.12,330.6 1042.96,330.6 C1050.58667,330.6 1055.90333,333.13 1058.91,338.19 C1061.91667,343.25 1063.42,350.033333 1063.42,358.54 L1063.42,414.64 C1063.42,416.986667 1062.39333,418.49 1060.34,419.15 C1058.28667,419.81 1055.28,420.286667 1051.32,420.58 L1051.32,423 L1094.66,423 L1094.66,421.02 C1093.34,420.873333 1091.94667,420.69 1090.48,420.47 C1089.01333,420.25 1087.65667,419.956667 1086.41,419.59 C1085.16333,419.223333 1084.1,418.673333 1083.22,417.94 C1082.34,417.206667 1081.9,416.326667 1081.9,415.3 L1081.9,349.74 C1081.9,340.06 1079.73667,332.14 1075.41,325.98 C1071.08333,319.82 1064.66667,316.74 1056.16,316.74 C1052.2,316.74 1048.35,317.546667 1044.61,319.16 C1040.87,320.773333 1037.46,322.863333 1034.38,325.43 C1031.3,327.996667 1028.58667,330.783333 1026.24,333.79 C1023.89333,336.796667 1022.06,339.62 1020.74,342.26 L1020.08,342.26 C1019.05333,334.486667 1016.37667,328.29 1012.05,323.67 C1007.72333,319.05 1002.04,316.74 995,316.74 C991.04,316.74 987.263333,317.51 983.67,319.05 C980.076667,320.59 976.74,322.496667 973.66,324.77 C970.58,327.043333 967.866667,329.61 965.52,332.47 C963.173333,335.33 961.266667,338.08 959.8,340.72 L959.36,340.5 L959.36,316.74 L958.04,316.74 L929.22,327.08 L929.22,328.84 C930.98,329.573333 932.74,330.416667 934.5,331.37 C936.26,332.323333 937.8,333.166667 939.12,333.9 C940.146667,334.633333 940.77,335.293333 940.99,335.88 C941.21,336.466667 941.32,337.346667 941.32,338.52 L941.32,413.76 C941.32,416.106667 940.11,417.793333 937.69,418.82 C935.27,419.846667 932.373333,420.506667 929,420.8 L929,423 L971.68,423 Z" id="Uniscam"></path>
        </g>
    </g>
</svg>